:version 1.10
:name ASF
:units
  mass 1
  length 1
  angle deg
:documentation
  ASF file generated by Kaydara
:root
  axis xyz
  order  tx ty tz rx ry rz
  position 0 0 0
  orientation 0 0 0
:bonedata
  begin
    id 1
    name RightUpLegDummy
    direction -0.718183 -0.695806 0.00816078
    length 4.904
    axis 0 0 0 xyz
  end
  begin
    id 2
    name RightUpLeg
    direction 3.53989e-006 -0.995788 0.0916897
    length 17.4976
    axis -3.49089 -0.000906621 0.000287158 xyz
    dof rx ry rz
  end
  begin
    id 3
    name RightLeg
    direction 0.00371093 -0.995096 -0.0988418
    length 16.5821
    axis 3.68512 0.0193738 -0.131023 xyz
    dof rx ry rz
  end
  begin
    id 4
    name RightFoot
    direction 0.000791514 -0.46099 0.887405
    length 3.77069
    axis 4.84075e-005 -0.120479 -0.188788 xyz
    dof rx ry rz
  end
  begin
    id 5
    name RightToes
    direction 0.00124746 -0.014064 0.9999
    length 3.85082
    axis 0.00048216 0.542163 -0.142577 xyz
    dof rx ry rz
  end
  begin
    id 6
    name SpineDummy
    direction 8.36599e-015 1 5.97571e-016
    length 4.6813
    axis 0 0 0 xyz
  end
  begin
    id 7
    name Spine
    direction -4.63632e-008 0.999988 0.00495137
    length 10.1015
    axis -0.00138897 0.000121419 3.25764e-006 xyz
    dof rx ry rz
  end
  begin
    id 8
    name Spine1
    direction 0 0 0
    length 0
    axis -0.00138896 0.000121452 2.39764e-006 xyz
    dof rx ry rz
  end
  begin
    id 9
    name HEadDummy
    direction -3.91456e-008 0.999999 0.00127422
    length 3.43865
    axis -0.00138896 0.000121452 2.39764e-006 xyz
  end
  begin
    id 10
    name HEad
    direction -0.0222688 0.980941 0.193023
    length 5.12695
    axis -0.00138895 0.000121452 2.39764e-006 xyz
    dof rx ry rz
  end
  begin
    id 11
    name LeftShoulder1Dummy
    direction 0.998891 -0.0402508 -0.0244456
    length 3.5433
    axis -0.00138896 0.000121452 2.39764e-006 xyz
  end
  begin
    id 12
    name LeftShoulder1
    direction 0.99951 -0.000327743 0.0313091
    length 4.05031
    axis -0.00138896 0.000121452 2.39764e-006 xyz
    dof rx ry rz
  end
  begin
    id 13
    name LeftArm
    direction 0.998561 -0.00100054 -0.0536182
    length 10.3537
    axis -23.1894 0.134784 0.96751 xyz
    dof rx ry rz
  end
  begin
    id 14
    name LeftForeArm
    direction 0.998903 0.00866434 0.046012
    length 8.70632
    axis -9.91835 -0.06569 -0.177792 xyz
    dof rx ry rz
  end
  begin
    id 15
    name LeftHand
    direction 0.992938 -0.0411636 0.11126
    length 5.32135
    axis -0.00960227 -0.00340091 0.185174 xyz
    dof rx ry rz
  end
  begin
    id 16
    name RightShoulderDummy
    direction -0.998891 -0.0402509 -0.0244414
    length 3.5433
    axis -0.00138896 0.000121452 2.39764e-006 xyz
  end
  begin
    id 17
    name RightShoulder
    direction -0.99951 -0.000327827 0.0313133
    length 4.05031
    axis 0.215806 0.000203644 -0.00680151 xyz
    dof rx ry rz
  end
  begin
    id 18
    name RightArm
    direction -0.998573 -0.000999583 -0.053403
    length 10.3947
    axis -23.2009 -0.134239 -0.9641 xyz
    dof rx ry rz
  end
  begin
    id 19
    name RightForeArm
    direction -0.998898 0.00868026 0.0461306
    length 8.68355
    axis -9.92322 0.0658061 0.178869 xyz
    dof rx ry rz
  end
  begin
    id 20
    name RightHand
    direction -0.992843 -0.0414603 0.112003
    length 5.28593
    axis -0.00960634 0.00330671 -0.185226 xyz
    dof rx ry rz
  end
  begin
    id 21
    name LeftUpLegDummy
    direction 0.718183 -0.695806 0.00816078
    length 4.904
    axis 0 0 0 xyz
  end
  begin
    id 22
    name LeftUpLeg
    direction -6.8115e-006 -0.995793 0.0916336
    length 17.4976
    axis -3.48766 0.00143441 -0.000523914 xyz
    dof rx ry rz
  end
  begin
    id 23
    name LeftLeg
    direction -0.00601357 -0.995091 -0.0987824
    length 16.5821
    axis 3.68177 -0.00654038 -0.00028478 xyz
    dof rx ry rz
  end
  begin
    id 24
    name LeftFoot
    direction -0.00417578 -0.460984 0.887399
    length 3.77069
    axis 1.87232e-006 4.66002e-005 -8.1837e-006 xyz
    dof rx ry rz
  end
  begin
    id 25
    name LeftToes
    direction 0.00818058 -0.00485161 0.999955
    length 3.85048
    axis 1.06246e-005 4.65855e-005 -8.18502e-006 xyz
    dof rx ry rz
  end
:hierarchy
  begin
    root RightUpLegDummy SpineDummy LeftUpLegDummy
    RightUpLegDummy RightUpLeg
    RightUpLeg RightLeg
    RightLeg RightFoot
    RightFoot RightToes
    SpineDummy Spine
    Spine Spine1
    Spine1 HEadDummy LeftShoulder1Dummy RightShoulderDummy
    HEadDummy HEad
    LeftShoulder1Dummy LeftShoulder1
    LeftShoulder1 LeftArm
    LeftArm LeftForeArm
    LeftForeArm LeftHand
    RightShoulderDummy RightShoulder
    RightShoulder RightArm
    RightArm RightForeArm
    RightForeArm RightHand
    LeftUpLegDummy LeftUpLeg
    LeftUpLeg LeftLeg
    LeftLeg LeftFoot
    LeftFoot LeftToes
  end

:SAMPLES-PER-SECOND 24
:FULLY-SPECIFIED
:DEGREES
1
root  12.7989 38.0384 14.0801 0.611694 42.8063 -5.01672
RightUpLeg  -20.305 4.74055 -17.7008
RightLeg  19.8704 -4.43446 -1.97421
RightFoot  7.14171 -2.32205 14.5079
RightToes  -2.08645e-008 3.77894e-005 6.81332e-007
Spine  2.95973 -1.4116 -3.5359
Spine1  6.79626 -3.02343 6.62088
HEad  -36.8 -17.0927 9.47085
LeftShoulder1  6.99302 -12.7884 -36.858
LeftArm  5.69586 -1.74784 -31.8678
LeftForeArm  149.829 -77.6175 -132.131
LeftHand  -0.508545 -2.77142 7.44886
RightShoulder  3.97225 6.64732 33.2465
RightArm  2.413 -22.7255 33.6795
RightForeArm  89.0117 80.2224 73.9315
RightHand  -0.428574 8.34907 -3.99663
LeftUpLeg  -6.477 -12.1599 5.82283
LeftLeg  31.7402 9.48961 6.62391
LeftFoot  -23.4304 -1.27246 -13.2984
LeftToes  1.24767e-006 1.47042e-008 1.32732e-009
2
root  12.8822 38.5684 13.5585 0.757324 39.5571 -6.40051
RightUpLeg  -21.6903 2.64 -15.0565
RightLeg  16.8224 -4.61448 -1.95356
RightFoot  11.8821 -2.23837 11.2625
RightToes  -2.08645e-008 3.77894e-005 6.81332e-007
Spine  3.41412 -1.58879 -3.76632
Spine1  6.1973 -3.55943 8.3469
HEad  -37.8592 -13.5046 9.20188
LeftShoulder1  7.23831 -13.0149 -37.7236
LeftArm  2.79175 11.449 -33.1296
LeftForeArm  151.416 -76.1143 -137.769
LeftHand  -0.543098 -1.65792 9.12127
RightShoulder  4.05748 6.73317 33.7483
RightArm  2.75759 -24.5377 35.1076
RightForeArm  93.094 80.367 79.7325
RightHand  -0.377637 8.32224 -3.56899
LeftUpLeg  -6.00213 -9.27304 6.64632
LeftLeg  28.2361 9.95553 6.08906
LeftFoot  -21.1624 -0.98778 -12.9236
LeftToes  1.24767e-006 1.47042e-008 1.32732e-009
3
root  12.9302 39.1338 13.2959 2.32715 38.1703 -6.66913
RightUpLeg  -21.837 -2.61533 -12.0626
RightLeg  13.7117 -3.70356 -2.05553
RightFoot  12.7697 -1.98644 9.69053
RightToes  -2.08645e-008 3.77894e-005 6.81332e-007
Spine  1.94178 -2.47753 -5.31317
Spine1  5.96399 -4.74637 9.90541
HEad  -36.3776 -10.8691 9.37336
LeftShoulder1  7.43511 -13.1933 -38.4067
LeftArm  0.511904 23.6662 -33.6697
LeftForeArm  150.921 -75.4457 -139.651
LeftHand  -0.597705 -1.23673 10.6207
RightShoulder  4.1503 6.80156 34.381
RightArm  3.79193 -27.3801 35.7051
RightForeArm  100.818 80.5689 85.8803
RightHand  -0.318226 9.19365 -2.92035
LeftUpLeg  -5.10517 -8.85684 6.71672
LeftLeg  22.2652 11.7573 5.54352
LeftFoot  -18.1147 -0.613484 -12.1605
LeftToes  1.24767e-006 1.47042e-008 1.32732e-009
4
root  12.9115 39.5006 13.2195 4.1886 36.9599 -6.50568
RightUpLeg  -21.8457 -4.01661 -10.5316
RightLeg  13.4262 -4.15965 -1.8838
RightFoot  11.5112 -2.30016 11.7606
RightToes  -2.08645e-008 3.77894e-005 6.81332e-007
Spine  -0.220657 -3.01228 -6.26448
Spine1  5.64816 -5.14205 9.92757
HEad  -33.6944 -9.80457 9.73571
LeftShoulder1  7.47119 -13.2386 -38.4975
LeftArm  -0.908137 32.9624 -33.4234
LeftForeArm  148.009 -76.0279 -137.316
LeftHand  -0.548838 -1.51685 9.39359
RightShoulder  4.22745 6.87928 34.8172
RightArm  4.3177 -30.9895 35.5449
RightForeArm  105.79 80.6486 89.6668
RightHand  -0.193504 9.59125 -1.88932
LeftUpLeg  -4.40384 -7.72753 6.43339
LeftLeg  16.9556 12.4171 5.15029
LeftFoot  -15.5087 -0.334874 -11.7188
LeftToes  1.24767e-006 1.47042e-008 1.32732e-009
5
root  12.7863 39.5221 13.1966 5.50757 35.5124 -5.69666
RightUpLeg  -21.003 -2.33244 -10.3729
RightLeg  15.1032 -4.53669 -1.78773
RightFoot  8.33243 -2.22268 13.1203
RightToes  -2.08645e-008 3.77894e-005 6.81332e-007
Spine  -1.43056 -2.9211 -6.64896
Spine1  5.41341 -4.58418 8.25753
HEad  -31.6921 -9.56777 10.1432
LeftShoulder1  7.29369 -13.0953 -37.8402
LeftArm  -0.500175 38.4147 -31.7856
LeftForeArm  145.415 -76.6148 -134.825
LeftHand  -0.494285 -1.77011 8.19585
RightShoulder  4.24089 6.91288 34.8151
RightArm  5.05019 -33.6291 35.0296
RightForeArm  104.252 80.6234 88.6068
RightHand  -0.100385 9.46966 -1.18334
LeftUpLeg  -3.81101 -3.75031 5.6784
LeftLeg  14.0495 10.0946 4.87322
LeftFoot  -15.1769 -0.287657 -11.2663
LeftToes  1.24767e-006 1.47042e-008 1.32732e-009
6
root  12.6211 39.3123 13.0844 6.40002 34.853 -4.19763
RightUpLeg  -19.1278 -1.98004 -10.8306
RightLeg  14.555 -4.95285 -1.9521
RightFoot  4.51634 -1.5431 11.2693
RightToes  -2.08645e-008 3.77894e-005 6.81332e-007
Spine  -1.49258 -2.67736 -6.65167
Spine1  5.43117 -3.8308 5.96158
HEad  -31.0214 -9.90927 10.3197
LeftShoulder1  7.01132 -12.8628 -36.7763
LeftArm  1.59915 40.1876 -29.0734
LeftForeArm  145.316 -76.628 -134.757
LeftHand  -0.505434 -1.85346 8.28617
RightShoulder  4.15142 6.84444 34.226
RightArm  6.16775 -34.6579 34.5398
RightForeArm  100.116 80.5689 84.8879
RightHand  -0.25608 9.22508 -2.42428
LeftUpLeg  -3.61982 -2.7468 4.43341
LeftLeg  13.4967 9.66454 4.735
LeftFoot  -16.4222 -0.37714 -10.6866
LeftToes  1.24767e-006 1.47042e-008 1.32732e-009
7
root  12.4916 39.1103 12.8844 7.02002 34.6329 -2.79254
RightUpLeg  -17.8313 -3.46616 -11.1427
RightLeg  11.9686 -4.91904 -2.39492
RightFoot  2.82757 -1.10783 9.06885
RightToes  -2.08645e-008 3.77894e-005 6.81332e-007
Spine  -1.40917 -2.19062 -5.98048
Spine1  6.01259 -2.93997 4.07909
HEad  -31.9573 -10.9337 10.0209
LeftShoulder1  7.01498 -12.8763 -36.7624
LeftArm  3.9043 38.0033 -25.6447
LeftForeArm  143.357 -77.0387 -132.797
LeftHand  -0.544729 -2.14875 8.58695
RightShoulder  4.05804 6.74645 33.7031
RightArm  7.41348 -33.7233 33.2446
RightForeArm  94.0719 80.425 78.8346
RightHand  -0.236598 8.93866 -2.30441
LeftUpLeg  -4.03082 -4.56973 3.08059
LeftLeg  14.3924 11.5315 5.04188
LeftFoot  -17.4995 -0.451621 -10.3152
LeftToes  1.24767e-006 1.47042e-008 1.32732e-009
8
root  12.3817 38.9955 12.6708 7.19629 33.2593 -2.21259
RightUpLeg  -18.5001 -2.61798 -11.4728
RightLeg  11.6527 -4.70282 -2.69855
RightFoot  3.05718 -1.04724 8.44254
RightToes  -2.08645e-008 3.77894e-005 6.81332e-007
Spine  -1.2459 -1.16985 -3.98021
Spine1  6.52988 -1.40322 1.71191
HEad  -33.5982 -11.9516 9.56456
LeftShoulder1  7.42354 -13.217 -38.275
LeftArm  4.97582 32.7756 -22.5031
LeftForeArm  136.205 -78.4284 -124.706
LeftHand  -0.572244 -2.19103 8.96295
RightShoulder  4.06145 6.72671 33.812
RightArm  8.31296 -30.8206 31.1709
RightForeArm  84.2466 79.9079 67.4734
RightHand  -0.342403 9.15029 -3.11004
LeftUpLeg  -4.83393 -5.68529 2.39545
LeftLeg  16.2791 13.9587 5.59832
LeftFoot  -18.0881 -0.501445 -10.3171
LeftToes  1.24767e-006 1.47042e-008 1.32732e-009
9
root  12.2801 38.9752 12.5208 6.7998 30.8841 -2.42053
RightUpLeg  -19.8837 -0.0463931 -11.7621
RightLeg  13.1656 -4.60068 -2.38661
RightFoot  3.60281 -1.11882 8.7026
RightToes  -2.08645e-008 3.77894e-005 6.81332e-007
Spine  0.0231899 -0.272763 -1.13552
Spine1  5.44549 0.111073 -1.25866
HEad  -33.7628 -11.7262 9.02689
LeftShoulder1  7.7341 -13.4687 -39.3984
LeftArm  3.80778 28.1127 -22.0219
LeftForeArm  130.37 -79.3759 -117.202
LeftHand  -0.553952 -1.49985 9.50254
RightShoulder  4.03443 6.72289 33.5641
RightArm  8.88481 -27.7358 30.1996
RightForeArm  76.9047 79.1729 58.4013
RightHand  -0.452084 9.21105 -3.97964
LeftUpLeg  -4.9542 -4.56506 2.39708
LeftLeg  17.396 15.0321 6.02698
LeftFoot  -18.1579 -0.526369 -10.6346
LeftToes  1.24767e-006 1.47042e-008 1.32732e-009
10
root  12.167 39.0601 12.5079 6.25989 29.7743 -2.6546
RightUpLeg  -20.1164 -0.133106 -11.5392
RightLeg  13.4244 -2.84663 -1.68246
RightFoot  3.90027 -1.21967 9.29685
RightToes  -2.08645e-008 3.77894e-005 6.81332e-007
Spine  1.55988 -0.412447 -0.118679
Spine1  3.68975 0.0387194 -1.803
HEad  -32.3584 -10.0035 8.07776
LeftShoulder1  7.69253 -13.4469 -39.2204
LeftArm  1.04909 25.4489 -24.3668
LeftForeArm  132.163 -79.1365 -119.414
LeftHand  -0.553533 -0.83046 10.46
RightShoulder  3.90373 6.66051 32.5207
RightArm  9.79743 -25.3858 30.6024
RightForeArm  77.9556 79.3693 60.9743
RightHand  -0.414293 9.00906 -3.72212
LeftUpLeg  -4.04339 -3.17839 2.66589
LeftLeg  16.4728 14.5119 5.83027
LeftFoot  -17.5371 -0.492829 -11.0147
LeftToes  1.24767e-006 1.47042e-008 1.32732e-009
11
root  11.9751 39.1752 12.6876 6.35925 30.6807 -2.30768
RightUpLeg  -19.8584 0.128548 -12.0736
RightLeg  14.0815 -1.61389 -1.16814
RightFoot  2.6351 -1.17113 9.67708
RightToes  -2.08645e-008 3.77894e-005 6.81332e-007
Spine  1.65755 -1.3571 -1.89219
Spine1  3.16995 -1.46027 0.697553
HEad  -31.1082 -7.94938 7.02677
LeftShoulder1  7.58433 -13.3924 -38.7487
LeftArm  -1.11173 22.4506 -26.7783
LeftForeArm  135.204 -78.2734 -125.278
LeftHand  -0.603181 -0.503859 11.9864
RightShoulder  3.8423 6.62736 32.0383
RightArm  10.3963 -23.2033 30.7727
RightForeArm  87.8283 80.1613 73.3271
RightHand  -0.230843 8.62899 -2.29701
LeftUpLeg  -3.17984 -1.91735 2.96318
LeftLeg  14.4582 12.361 5.05229
LeftFoot  -16.5923 -0.425917 -11.4193
LeftToes  1.24767e-006 1.47042e-008 1.32732e-009
